<svg xmlns="http://www.w3.org/2000/svg" xmlns:xlink="http://www.w3.org/1999/xlink" width="133.343" height="120" viewBox="0 0 133.343 120">
  <defs>
    <linearGradient id="linear-gradient" x1="0.014" y1="1" x2="1" y2="0.066" gradientUnits="objectBoundingBox">
      <stop offset="0" stop-color="#d10068"/>
      <stop offset="1" stop-color="#db3b8b"/>
    </linearGradient>
  </defs>
  <g id="Group_2184" data-name="Group 2184" transform="translate(-276 -5548)">
    <path id="conversation" d="M113.342,0H20A20.023,20.023,0,0,0,0,20V77.784a20.023,20.023,0,0,0,20,20h6.178l-3.911,19.557a2.222,2.222,0,0,0,3.213,2.4L67.221,97.785h46.121a20.023,20.023,0,0,0,20-20V20a20.023,20.023,0,0,0-20-20ZM128.9,77.784A15.574,15.574,0,0,1,113.342,93.34H66.672a2.218,2.218,0,0,0-1.035.256l-38.094,20.05,3.527-17.639a2.222,2.222,0,0,0-2.178-2.667H20A15.574,15.574,0,0,1,4.445,77.784V20A15.574,15.574,0,0,1,20,4.445h93.34A15.574,15.574,0,0,1,128.9,20Zm0,0" transform="translate(276 5548)"/>
    <path id="Path_13507" data-name="Path 13507" d="M1427.021,156h-16.185c-.007-.211-.021-.423-.021-.634q0-19.366,0-38.732c0-.211.013-.423.021-.634h16.416a3.36,3.36,0,0,0,.5.094,25.691,25.691,0,0,1,7.563,1.408,18.155,18.155,0,0,1,10.707,9.1,20.455,20.455,0,0,1,2.038,10.123,19.354,19.354,0,0,1-2.928,9.944c-3.484,5.444-8.714,8.035-14.913,8.984C1429.16,155.812,1428.087,155.885,1427.021,156Zm-5.309-9.827c2.883-.09,5.761.293,8.557-.593a9.154,9.154,0,0,0,4.415-2.812,10.55,10.55,0,0,0,2.111-8.641c-.744-5.268-4.594-7.773-8.917-8.16-1.969-.176-3.961-.1-5.943-.13a.979.979,0,0,0-.223.051Z" transform="translate(-1086.814 5461)" fill="url(#linear-gradient)"/>
  </g>
</svg>
