<svg xmlns="http://www.w3.org/2000/svg" xmlns:xlink="http://www.w3.org/1999/xlink" width="117.659" height="107.355" viewBox="0 0 117.659 107.355">
  <defs>
    <linearGradient id="linear-gradient" x1="0.014" y1="1" x2="1" y2="0.066" gradientUnits="objectBoundingBox">
      <stop offset="0" stop-color="#d10068"/>
      <stop offset="1" stop-color="#db3b8b"/>
    </linearGradient>
  </defs>
  <g id="Group_2185" data-name="Group 2185" transform="translate(-35 -4801)">
    <g id="Group_2166" data-name="Group 2166" transform="translate(-415.322 4364.287)">
      <path id="Path_13486" data-name="Path 13486" d="M530.527,479.658h-8.649v-3.9h12.8c-.049.8-.055,1.589-.151,2.368a19.579,19.579,0,0,1-3.1,8.523,20.093,20.093,0,0,1-11.979,8.554c-.316.084-.469-.073-.652-.256q-9.667-9.677-19.337-19.351c-1.353-1.354-2.7-2.713-4.064-4.058a.643.643,0,0,1-.2-.706,19.792,19.792,0,0,1,7.857-11.439,19.158,19.158,0,0,1,9.237-3.546,19.756,19.756,0,0,1,14.215,3.762,20.526,20.526,0,0,1,4.315,4.327l-2.711,2.416c-.566-.659-1.083-1.329-1.669-1.933a16.392,16.392,0,0,0-27.091,5.405.466.466,0,0,0,.122.585q10.251,10.236,20.481,20.492a.471.471,0,0,0,.616.107,16.322,16.322,0,0,0,9.63-10.172C530.315,480.465,530.406,480.081,530.527,479.658Z" transform="translate(-5.333)" fill="url(#linear-gradient)"/>
      <path id="Path_13487" data-name="Path 13487" d="M508.771,716.051c-10.3.131-19.563-9.01-19.448-19.5Z" transform="translate(0 -220.339)" fill="url(#linear-gradient)"/>
    </g>
    <g id="Group_2171" data-name="Group 2171" transform="translate(-3.048 4760.211)">
      <path id="Path_10652" data-name="Path 10652" d="M153.5,117.574H40.254a2.227,2.227,0,0,1-2.206-2.25v-76.5a2.228,2.228,0,0,1,2.206-2.25h71.331a2.25,2.25,0,0,1,0,4.5H42.46v72H151.295v-40.5a2.207,2.207,0,1,1,4.412,0v42.75A2.227,2.227,0,0,1,153.5,117.574Z" transform="translate(0 4.215)" fill="#292929"/>
      <path id="Path_10655" data-name="Path 10655" d="M79.3,112.074a2.249,2.249,0,0,1-2.25-2.25v-19.5a2.25,2.25,0,0,1,4.5,0v19.5A2.249,2.249,0,0,1,79.3,112.074Z" transform="translate(18.437 27.82)" fill="#292929"/>
      <path id="Path_10656" data-name="Path 10656" d="M108.3,111.074H64.8a2.25,2.25,0,0,1,0-4.5h43.5a2.25,2.25,0,0,1,0,4.5Z" transform="translate(11.241 37.07)" fill="#292929"/>
    </g>
  </g>
</svg>
