<svg xmlns="http://www.w3.org/2000/svg" xmlns:xlink="http://www.w3.org/1999/xlink" width="123.6" height="120" viewBox="0 0 123.6 120">
  <defs>
    <linearGradient id="linear-gradient" x1="0.014" y1="1" x2="1" y2="0.066" gradientUnits="objectBoundingBox">
      <stop offset="0" stop-color="#d10068"/>
      <stop offset="1" stop-color="#db3b8b"/>
    </linearGradient>
  </defs>
  <g id="Group_2186" data-name="Group 2186" transform="translate(-29 -5153)">
    <g id="Group_2174" data-name="Group 2174" transform="translate(-1033.259 5024.561)">
      <path id="Path_13500" data-name="Path 13500" d="M1141.288,174.654c2.224,2.555,2.534,5.878,2.484,9.265a1.653,1.653,0,0,0,1.419,1.931,12.6,12.6,0,0,1,3.221,1.374,4.2,4.2,0,0,1,1.793,5.466c-.628,1.65.014,2.8,1.152,4.012a4.879,4.879,0,0,1,1.362,3.025c-.087,5.783-2.857,10.294-7.259,13.822-10.039,8.046-29.494,6.557-36.5-7.408a2.5,2.5,0,0,0-1.483-1.124c-6.11-1.5-8.811-5.546-7.776-11.638a1.849,1.849,0,0,0-.54-1.525c-3.28-2.3-3.362-5.37-2.273-8.771a33.907,33.907,0,0,1,8.542-13.555,105.911,105.911,0,0,1,10.492-8.807,13.235,13.235,0,0,1,4.393-1.919c2.773-.805,5.326-.329,7.186,2.082,1.189,1.542,2.343,1.808,4.2.936a15.223,15.223,0,0,1,8.692-1.361c4.048.576,6.044,3.482,4.611,7.333C1144.138,170.12,1142.637,172.214,1141.288,174.654Zm6.12,25.884c-3.107,3.376-7.142,4.691-11.579,5.019a11.172,11.172,0,0,1-7-1.312,3.809,3.809,0,0,1-1.686-4.671c.661-1.741,1.989-2.086,3.752-1.915a23,23,0,0,0,13.854-2.534,11.538,11.538,0,0,0,3.114-2.57,2.235,2.235,0,0,0-.714-3.619,9.949,9.949,0,0,0-3.094-1.195c-1.834-.332-2.406-1.392-2.435-3.109a29.819,29.819,0,0,0-.413-5.173c-.525-2.7-2.5-3.436-4.62-1.7a7.542,7.542,0,0,1-6.438,1.577,12.779,12.779,0,0,0-1.663-.178,6.067,6.067,0,0,0-6.32,5.322c-.428,2.922.764,5.2,2.718,7.183.971.984,1.119,1.686.13,2.921a10.6,10.6,0,0,0,4.946,16.929,19.609,19.609,0,0,0,7.832.67c6.552-.685,11.939-5.735,12.879-11.617a2.8,2.8,0,0,0-.184-1.774c-.758-1.211-1.7-2.308-2.423-3.26-2.367.955-4.8,2.364-7.4,2.88-3.239.641-6.626.523-9.946.781a14.31,14.31,0,0,0-2.1.478l.092.876,9.114.879c-3.148,1.28-6.18.693-9.31.328a4.064,4.064,0,0,0,1.861,1.658,22.252,22.252,0,0,0,5.1.751C1139.785,204.2,1143.634,202.532,1147.409,200.538Zm-20.369-36.819c-2.948-3.576-4.162-3.89-8.318-1.987a26.371,26.371,0,0,0-3.714,2.1,43.641,43.641,0,0,0-13.856,15.048,37.805,37.805,0,0,0-2.417,5.8,4.435,4.435,0,0,0,1.986,5.764c1.3-.84,2.566-1.584,3.745-2.449a5.584,5.584,0,0,0,1.939-1.911,39.864,39.864,0,0,1,12.54-16.557C1121.557,167.552,1124.261,165.7,1127.039,163.719ZM1113.294,196.9a27.145,27.145,0,0,0-1.411-4.519,5,5,0,0,0-6.326-2.409c-2.761.941-4.244,3.672-3.818,7.036.389,3.076,3.922,6.057,6.937,5.852C1111.436,202.676,1112.993,200.561,1113.294,196.9Zm4.366-22.1.327.362a25.776,25.776,0,0,1,17.262-3.906l-4.9-1.285.838-1.487-6.645,2.353c.09-.454.176-.885.261-1.315l-.365-.3Z" transform="translate(0 0)" fill="url(#linear-gradient)"/>
      <path id="Path_13501" data-name="Path 13501" d="M1210.916,225.432l-1.289,1.539a14.425,14.425,0,0,1-1.452-2.822c-.123-.44.539-1.1.845-1.659Z" transform="translate(-70.236 -40.202)" fill="url(#linear-gradient)"/>
      <path id="Path_13502" data-name="Path 13502" d="M1183.745,234.52h-6.067c.545-1.141,1.228-1.545,2.839-1.595A3.193,3.193,0,0,1,1183.745,234.52Z" transform="translate(-51.105 -46.751)" fill="url(#linear-gradient)"/>
      <path id="Path_13503" data-name="Path 13503" d="M1124.069,256.344c-.638,0-1.5.255-1.86-.061a3.076,3.076,0,0,1-.945-2.018c-.04-1.245,1.183-2.955-.775-3.4-.856-.193-2.033,1.043-3.155,1.68a2.275,2.275,0,0,1,.9-2.72,3.923,3.923,0,0,1,2.962-.728,3.727,3.727,0,0,1,1.862,2.191,3.622,3.622,0,0,1-.372,2.292c-.556,1.4-.373,2.193,1.571,1.974Z" transform="translate(-13.114 -56.86)" fill="url(#linear-gradient)"/>
    </g>
    <g id="Polygon_2" data-name="Polygon 2" transform="translate(29 5153)" fill="none">
      <path d="M55.314,3.111a15,15,0,0,1,12.973,0l36.554,17.53a15,15,0,0,1,8.135,10.174L121.98,70.1a15,15,0,0,1-2.912,12.727L93.807,114.376A15,15,0,0,1,82.1,120H41.5a15,15,0,0,1-11.708-5.624L4.532,82.832A15,15,0,0,1,1.62,70.1l9.005-39.29A15,15,0,0,1,18.76,20.641Z" stroke="none"/>
      <path d="M 61.80004119873047 5.135726928710938 C 60.08929443359375 5.135726928710938 58.36971282958984 5.526741027832031 56.82718658447266 6.266487121582031 L 20.27304077148438 23.79685211181641 C 18.72344207763672 24.54000091552734 17.33709716796875 25.64228820800781 16.26387786865234 26.98458099365234 C 15.19065856933594 28.32687377929688 14.42044067382813 29.92179870605469 14.03651428222656 31.59694671630859 L 5.031387329101563 70.88688659667969 C 4.646453857421875 72.56632995605469 4.646163940429688 74.34178161621094 5.030509948730469 76.02134704589844 C 5.41485595703125 77.70090484619141 6.187278747558594 79.29954528808594 7.264259338378906 80.64443206787109 L 32.52478790283203 112.1884002685547 C 33.59564208984375 113.5256195068359 34.97789764404297 114.6244735717773 36.52213287353516 115.3662185668945 C 38.06636810302734 116.1079406738281 39.78813171386719 116.5 41.50125885009766 116.5 L 82.09874725341797 116.5 C 83.8118896484375 116.5 85.53363800048828 116.1079406738281 87.077880859375 115.3661956787109 C 88.62211608886719 114.6244735717773 90.00436401367188 113.5255966186523 91.07522583007813 112.1884002685547 L 116.3357315063477 80.64439392089844 C 117.412727355957 79.29950714111328 118.1851501464844 77.70086669921875 118.5694961547852 76.02132415771484 C 118.9538421630859 74.34178161621094 118.9535293579102 72.56632995605469 118.568603515625 70.88688659667969 L 109.5634918212891 31.59694671630859 C 109.1795501708984 29.92177581787109 108.4093322753906 28.32685089111328 107.3361129760742 26.98455810546875 C 106.2628936767578 25.64227294921875 104.8765487670898 24.53996276855469 103.3269500732422 23.79681396484375 L 66.77278137207031 6.266471862792969 C 65.23031616210938 5.526725769042969 63.51074981689453 5.135726928710938 61.80004119873047 5.135726928710938 M 61.80002975463867 1.635726928710938 C 64.01802062988281 1.635726928710938 66.2359619140625 2.127349853515625 68.2862548828125 3.110618591308594 L 104.8404006958008 20.64096069335938 C 108.9598541259766 22.61654663085938 111.9543685913086 26.36181640625 112.9750366210938 30.81501770019531 L 121.9801483154297 70.10498046875 C 123.00341796875 74.56951904296875 121.9307632446289 79.25694274902344 119.0676956176758 82.83218383789063 L 93.80718231201172 114.3761596679688 C 90.96047973632813 117.9309768676758 86.65293121337891 120 82.09874725341797 120 L 41.50125885009766 120 C 36.94709014892578 120 32.63954925537109 117.9309997558594 29.79282379150391 114.3761825561523 L 4.532295227050781 82.83219909667969 C 1.669242858886719 79.25698089599609 0.596588134765625 74.56954193115234 1.619842529296875 70.10498046875 L 10.62496948242188 30.81503295898438 C 11.64562225341797 26.36183166503906 14.64015197753906 22.61656188964844 18.75958251953125 20.64099884033203 L 55.31372833251953 3.110633850097656 C 57.36402893066406 2.127372741699219 59.58204650878906 1.635726928710938 61.80002975463867 1.635726928710938 Z" stroke="none" fill="#0f2137"/>
    </g>
  </g>
</svg>
