<svg xmlns="http://www.w3.org/2000/svg" xmlns:xlink="http://www.w3.org/1999/xlink" width="120" height="120" viewBox="0 0 120 120">
  <defs>
    <linearGradient id="linear-gradient" x1="0.014" y1="1" x2="1" y2="0.066" gradientUnits="objectBoundingBox">
      <stop offset="0" stop-color="#d10068"/>
      <stop offset="1" stop-color="#db3b8b"/>
    </linearGradient>
  </defs>
  <g id="Group_2173" data-name="Group 2173" transform="translate(-35 -5551)">
    <g id="Rectangle_489" data-name="Rectangle 489" transform="translate(35 5551)" fill="none" stroke="#292929" stroke-width="3.5">
      <rect width="120" height="120" rx="6" stroke="none"/>
      <rect x="1.75" y="1.75" width="116.5" height="116.5" rx="4.25" fill="none"/>
    </g>
    <g id="Group_2172" data-name="Group 2172" transform="translate(0 -18)">
      <path id="Path_13498" data-name="Path 13498" d="M56.555,121.493l-.025,3.191H66.672V153.5h7.174V124.684H83.988v-3.129a30.643,30.643,0,0,0-.086-3.216c-.037-.049-6.209-.074-13.692-.062l-13.618.037Z" transform="translate(11.47 5493.377)" fill="url(#linear-gradient)"/>
      <path id="Path_13499" data-name="Path 13499" d="M169.473,117.375a9.7,9.7,0,0,1,4.873,2.808,12.845,12.845,0,0,1,1.868,2.5c.025.1-3.364,2.375-5.417,3.649-.074.05-.371-.272-.705-.767a4.416,4.416,0,0,0-3.661-2.2c-2.362-.161-3.884,1.076-3.871,3.142a2.857,2.857,0,0,0,.334,1.46c.52,1.076,1.484,1.719,4.515,3.03,5.578,2.4,7.965,3.983,9.45,6.234a11.307,11.307,0,0,1,.9,9.5c-1.237,3.24-4.3,5.442-8.621,6.172a23.893,23.893,0,0,1-5.937-.062,14.319,14.319,0,0,1-7.928-4.131,13.759,13.759,0,0,1-2.028-3.006,5.86,5.86,0,0,1,.717-.457c.346-.2,1.658-.952,2.894-1.67l2.239-1.3.47.693a10.458,10.458,0,0,0,2.956,2.832c2.486,1.311,5.9,1.126,7.582-.383a3.387,3.387,0,0,0,.433-4.317c-.606-.866-1.843-1.6-5.356-3.117-4.02-1.732-5.751-2.808-7.334-4.515a10.272,10.272,0,0,1-2.14-3.9,15.6,15.6,0,0,1-.136-4.972c.829-3.884,3.76-6.592,7.99-7.4A19.744,19.744,0,0,1,169.473,117.375Z" transform="translate(-57.404 5493.946)" fill="url(#linear-gradient)"/>
    </g>
  </g>
</svg>
